<?xml version="1.0" standalone="no"?>
<!DOCTYPE svg PUBLIC "-//W3C//DTD SVG 1.1//EN" "http://www.w3.org/Graphics/SVG/1.1/DTD/svg11.dtd"><svg t="1605532140731"
    class="icon" viewBox="0 0 1024 1024" version="1.1" xmlns="http://www.w3.org/2000/svg" p-id="4363"
    xmlns:xlink="http://www.w3.org/1999/xlink" width="16" height="16">
    <defs>
        <style type="text/css"></style>
    </defs>
    <path
        d="M517.920338 267.925099c-3.203972-1.839905-6.704702-2.715855-10.1645-2.715855-7.081279 0-13.995759 3.660366-17.806551 10.199293l-77.901231 133.671419c-2.707668 4.640694-3.438309 10.055007-2.053776 15.240099 1.406023 5.26798 4.805446 9.676383 9.576099 12.413727 9.750061 5.614881 22.338774 2.273786 28.054963-7.468089l77.873602-133.674489C531.026844 285.952684 527.635607 273.5277 517.920338 267.925099z"
        p-id="4364" fill="#e6e6e6"></path>
    <path
        d="M396.811026 476.008274l-0.035816-0.039909c-3.213181-1.848091-6.731308-2.727111-10.205433-2.727111-7.089465 0-14.004969 3.653203-17.817808 10.183943l-8.645914 14.843056c-2.707668 4.637624-3.437286 10.041704-2.056845 15.21861 1.401929 5.26184 4.809539 9.668197 9.586332 12.414751 9.765411 5.608741 22.331611 2.261507 28.02938-7.457856l8.634658-14.843056c2.723018-4.731768 3.440355-10.219759 2.01489-15.441691C404.899238 482.987223 401.524374 478.670917 396.811026 476.008274z"
        p-id="4365" fill="#e6e6e6"></path>
    <path
        d="M494.738359 923.460166 44.749692 923.460166c-16.056698 0-29.120224 14.9679-29.120224 30.851659 0 15.882736 13.063527 30.846542 29.120224 30.846542l449.988668 0c16.030092 0 29.074176-14.963807 29.074176-30.846542C523.812535 938.428066 510.768451 923.460166 494.738359 923.460166z"
        p-id="4366" fill="#e6e6e6"></path>
    <path
        d="M1020.603135 677.658947c-1.719154-6.526647-5.91471-11.995195-11.819187-15.397688L580.497559 438.932868l98.689696-169.378665c7.972579-13.673417 10.104125-29.618575 6.007831-44.910862-4.125971-15.397688-14.048971-28.253484-27.942399-36.199457L387.462101 34.050514c-9.118682-5.202489-19.484773-7.953136-29.973662-7.953136-21.474081 0-41.441854 11.376095-52.105728 29.686113L11.063475 560.798403c-7.965415 13.687744-10.094916 29.649274-5.997598 44.939515 4.118807 15.378246 14.033621 28.233018 27.921933 36.19127L302.796816 796.276509c9.128915 5.222955 19.498076 7.983835 29.990035 7.983835 21.457708 0 41.401945-11.386328 52.055586-29.715789l98.999758-169.999812 412.916331 249.78802c3.734044 2.137687 8.082072 3.292999 12.496615 3.292999 9.103332 0 17.578354-4.827959 22.107507-12.602016l86.551238-148.528801C1021.336846 690.741917 1022.282381 684.063821 1020.603135 677.658947zM349.472881 734.889393c-5.490038 7.696286-15.198144 10.4367-22.458501 10.4367-1.277086 0-2.493797-0.084934-3.614317-0.249687-9.964956-1.477654-19.907399-6.551206-24.949228-9.447163L88.553337 615.56575c-10.127661-5.785773-17.369599-15.165398-20.386306-26.409486-3.009544-11.213389-1.445932-22.925129 4.40124-32.976042l259.585153-445.62836c7.801686-13.372565 22.354124-21.675672 37.975916-21.675672 7.618515 0 15.144932 1.997494 21.767769 5.779633l209.780841 120.076796c10.152221 5.815449 17.401322 15.21554 20.414959 26.465768 2.99931 11.203156 1.433652 22.89443-4.40738 32.917714C590.557682 320.823889 352.525404 730.60481 349.472881 734.889393zM899.885749 799.798728l-389.606439-240.262062 43.448558-74.600045 407.745565 207.880561L899.885749 799.798728z"
        p-id="4367" fill="#e6e6e6"></path>
</svg>